<?xml version="1.0" encoding="UTF-8"?>
<svg version="1.1" xmlns="http://www.w3.org/2000/svg" width="1024" height="1536">
<path d="M0 0 C337.92 0 675.84 0 1024 0 C1024 506.88 1024 1013.76 1024 1536 C686.08 1536 348.16 1536 0 1536 C0 1029.12 0 522.24 0 0 Z " fill="#FDFDFD" transform="translate(0,0)"/>
<path d="M0 0 C1.02222656 0.12358887 2.04445313 0.24717773 3.09765625 0.37451172 C58.58853887 7.26079002 111.74468889 26.39713956 158 58 C158.90322998 58.61391602 158.90322998 58.61391602 159.82470703 59.24023438 C173.14329948 68.35160415 185.59702784 78.5623467 197.38671875 89.5703125 C199.65725606 91.68133523 201.96279436 93.72826474 204.3125 95.75 C210.04190563 100.73363588 215.20574046 106.11968437 220.1484375 111.87890625 C221.37657169 113.28581946 222.63199376 114.66939747 223.9140625 116.02734375 C275.70065424 171.20818776 307.92670812 253.61836467 308.203125 329.171875 C308.20882507 330.41132874 308.21452515 331.65078247 308.22039795 332.92779541 C308.22979851 335.54316366 308.23636212 338.1585435 308.24023438 340.77392578 C308.24987022 344.6971616 308.28091374 348.619857 308.3125 352.54296875 C308.37702334 367.95777066 307.44700174 382.7856981 305 398 C304.70551472 399.94931577 304.41255978 401.89886331 304.12109375 403.84863281 C296.73859506 452.5155762 276.89400603 500.55261924 249 541 C248.59362305 541.59635254 248.18724609 542.19270508 247.76855469 542.80712891 C238.86718849 555.822602 228.91502063 568.05585536 218.19921875 579.6171875 C216.23049109 581.7502672 214.32595826 583.92107846 212.4375 586.125 C206.84877214 592.54022987 200.78590133 598.48818043 194.3203125 604.015625 C192.55011966 605.5295273 190.79815218 607.06476703 189.0546875 608.609375 C134.22252764 656.92439701 65.35770512 684.56837302 -7 692 C-8.1605188 692.1403064 -8.1605188 692.1403064 -9.34448242 692.28344727 C-83.43690349 700.45221573 -164.29514653 682.25780124 -227 642 C-227.74282227 641.52320801 -228.48564453 641.04641602 -229.25097656 640.55517578 C-242.79553146 631.79651367 -255.61810151 622.34628746 -268 612 C-269.010625 611.17628906 -270.02125 610.35257813 -271.0625 609.50390625 C-278.69597872 603.20282071 -285.79443414 596.41489928 -292.8125 589.4375 C-293.68374512 588.57543945 -294.55499023 587.71337891 -295.45263672 586.82519531 C-301.3915973 580.85799162 -306.7432723 574.56975496 -312 568 C-312.87524702 566.96083798 -313.75537615 565.92572434 -314.64453125 564.8984375 C-357.61949422 514.87712925 -381.84186467 450.80413966 -390 386 C-390.15142456 384.8711438 -390.15142456 384.8711438 -390.3059082 383.71948242 C-401.73501317 297.57379099 -375.54212023 207.10383059 -324.4375 137.6875 C-322.97060272 135.7821574 -321.49048693 133.88694641 -320 132 C-319.29955566 131.10667969 -319.29955566 131.10667969 -318.58496094 130.1953125 C-310.54865106 119.97940358 -302.03512147 110.34079234 -293 101 C-292.43748535 100.41557129 -291.8749707 99.83114258 -291.29541016 99.22900391 C-285.07497254 92.79188922 -278.75299521 86.7276401 -271.72265625 81.1640625 C-268.87933895 78.90409437 -266.13253964 76.5511054 -263.375 74.1875 C-220.35716301 38.40372803 -165.79704251 14.51888156 -111 4 C-109.97535645 3.80325684 -108.95071289 3.60651367 -107.89501953 3.40380859 C-72.74085536 -3.14792525 -35.52918365 -4.46571862 0 0 Z " fill="#04122D" transform="translate(554,421)"/>
<path d="M0 0 C1.42792877 -0.01058945 1.42792877 -0.01058945 2.88470459 -0.02139282 C56.30690071 -0.3272679 107.98937347 7.82256383 155.72216797 33.19677734 C157.75445053 34.26938537 159.80136283 35.30973975 161.8515625 36.34765625 C198.8186046 55.22905316 231.65906267 84.20309458 256.62890625 117.203125 C257.08120605 117.79319336 257.53350586 118.38326172 257.99951172 118.99121094 C290.04989389 160.88311975 310.50847558 211.85760523 316.62890625 264.203125 C316.73187012 265.06341309 316.83483398 265.92370117 316.94091797 266.81005859 C323.23760384 321.53054673 314.58476978 378.45858053 290.62890625 428.203125 C290.14188232 429.2226123 290.14188232 429.2226123 289.64501953 430.26269531 C281.24575562 447.74687734 271.48026023 464.01036845 260.25390625 479.828125 C259.824729 480.43285645 259.39555176 481.03758789 258.95336914 481.66064453 C257.28197891 483.99304974 255.66168027 486.17035098 253.62890625 488.203125 C251.4150219 488.44922066 251.4150219 488.44922066 248.60494995 488.44363403 C247.54201721 488.44638336 246.47908447 488.44913269 245.38394165 488.45196533 C244.21293915 488.44477478 243.04193665 488.43758423 241.83544922 488.43017578 C240.60620728 488.43046783 239.37696533 488.43075989 238.11047363 488.43106079 C234.73457135 488.42990406 231.358912 488.41985589 227.98305273 488.40591288 C224.45698095 488.39343218 220.93090613 488.39223712 217.40481567 488.38986206 C210.7253995 488.38363944 204.04604859 488.3672181 197.36666119 488.34716308 C189.76338293 488.32482835 182.16010159 488.31381677 174.5567987 488.30377221 C158.91413005 488.28285251 143.27152656 488.24766141 127.62890625 488.203125 C131.98471971 481.62926363 131.98471971 481.62926363 134.40625 478.71484375 C134.912771 478.1000415 135.41929199 477.48523926 135.94116211 476.85180664 C136.47749268 476.2046167 137.01382324 475.55742676 137.56640625 474.890625 C142.18540211 469.26741433 146.67900024 463.57112132 151.06640625 457.765625 C156.06496923 451.16300597 161.24526215 444.73925985 166.53662109 438.36962891 C170.61341994 433.45679664 174.59092097 428.47896258 178.51391602 423.44287109 C182.0138436 418.95952985 185.59204051 414.54438849 189.19140625 410.140625 C193.0787852 405.38143789 196.90230713 400.58937895 200.62890625 395.703125 C204.88974472 390.11638542 209.2934924 384.66068253 213.73779297 379.21923828 C219.12426914 372.61640995 224.38587503 365.92003908 229.62890625 359.203125 C235.95685494 351.09630933 242.35721915 343.05943252 248.86279297 335.09423828 C253.02708531 329.98065044 257.04873793 324.77597908 261.046875 319.53125 C263.93580573 315.77552734 266.93997268 312.11954684 269.94140625 308.453125 C276.66207402 300.16220775 283.14576897 291.68107375 289.62890625 283.203125 C208.44890625 282.873125 127.26890625 282.543125 43.62890625 282.203125 C43.62890625 217.853125 43.62890625 153.503125 43.62890625 87.203125 C28.11890625 87.203125 12.60890625 87.203125 -3.37109375 87.203125 C-3.37109375 166.403125 -3.37109375 245.603125 -3.37109375 327.203125 C62.29890625 327.203125 127.96890625 327.203125 195.62890625 327.203125 C194.08525765 330.29042219 192.90684431 332.26309809 190.7578125 334.8203125 C189.90497681 335.84330444 189.90497681 335.84330444 189.03491211 336.88696289 C188.42655518 337.61004639 187.81819824 338.33312988 187.19140625 339.078125 C182.7428481 344.41924095 178.3355411 349.77981062 174.06640625 355.265625 C170.13030633 360.31935596 166.12025749 365.30586873 162.06640625 370.265625 C158.09501669 375.12712344 154.18483632 380.02343101 150.37890625 385.015625 C146.67095911 389.8759615 142.85455763 394.62441868 138.96484375 399.33984375 C135.89998183 403.09660593 132.91347428 406.91185052 129.92602539 410.73022461 C126.52174329 415.07735791 123.08424819 419.39649117 119.62890625 423.703125 C115.78625919 428.49255589 111.97331452 433.30310868 108.19140625 438.140625 C104.20960859 443.23221057 100.15569654 448.26004735 96.06640625 453.265625 C91.34047503 459.051733 86.75222452 464.91799325 82.22265625 470.859375 C79.26679285 474.70199741 76.19773303 478.45055614 73.12890625 482.203125 C68.34129694 488.05990672 63.67253124 493.98792582 59.08203125 500 C56.49971281 503.38071641 53.88213589 506.73302049 51.25390625 510.078125 C50.58198242 510.93349854 50.58198242 510.93349854 49.89648438 511.80615234 C47.38060321 515.00096457 44.847928 518.18161628 42.30078125 521.3515625 C41.75083496 522.03621582 41.20088867 522.72086914 40.63427734 523.42626953 C39.56609447 524.75422014 38.49616981 526.080772 37.42431641 527.40576172 C34.7746411 530.63630124 34.7746411 530.63630124 32.62890625 534.203125 C90.37890625 534.203125 148.12890625 534.203125 207.62890625 534.203125 C160.71878042 581.11325083 84.73943238 603.99719994 19.7355957 604.39379883 C-24.4258016 604.3574566 -65.25601825 596.26142381 -106.37109375 580.203125 C-104.73535583 575.78663262 -102.47360227 572.69391312 -99.37109375 569.203125 C-95.13929646 564.32568151 -91.11778769 559.3611437 -87.21069336 554.21850586 C-84.01244189 550.01747125 -80.74079498 545.8813591 -77.43359375 541.765625 C-72.15352491 535.19125631 -66.92983895 528.57492973 -61.72998047 521.93701172 C-58.98824255 518.43866054 -56.24034419 514.9451455 -53.49365234 511.45068359 C-51.21253136 508.54810077 -48.93281112 505.64444227 -46.65625 502.73828125 C-42.46109033 497.38617402 -38.25280795 492.04670175 -33.99023438 486.74804688 C-29.21872669 480.81640791 -24.53581897 474.82968481 -19.93359375 468.765625 C-15.1109724 462.4148301 -10.15996816 456.1875721 -5.11010742 450.01635742 C-0.22745969 444.04654323 4.54358589 437.9944607 9.29052734 431.91650391 C15.36120794 424.14488106 21.46002622 416.3970865 27.62890625 408.703125 C31.60746563 403.73976093 35.57001609 398.76449095 39.50390625 393.765625 C39.931875 393.22292969 40.35984375 392.68023438 40.80078125 392.12109375 C43.16807092 389.10684293 45.49256937 386.06408746 47.78955078 382.99584961 C48.32323273 382.28327499 48.85691467 381.57070038 49.4067688 380.83653259 C49.81007416 380.29750809 50.21337952 379.75848358 50.62890625 379.203125 C41.59743865 378.80696953 32.56901087 378.50611016 23.53071308 378.32231808 C19.33202563 378.23403671 15.13932878 378.1146745 10.9440918 377.9206543 C-8.30930351 376.08691961 -8.30930351 376.08691961 -25.30639648 382.77294922 C-28.2405376 386.21040286 -30.29425928 389.87990725 -32.19831848 393.96124268 C-34.25347158 397.88988231 -37.17927547 401.10882129 -40.05859375 404.453125 C-41.14656505 405.77590915 -42.23164704 407.10108058 -43.3125 408.4296875 C-43.8295752 409.06422852 -44.34665039 409.69876953 -44.87939453 410.35253906 C-47.96316715 414.17823406 -50.93293692 418.09028948 -53.9140625 421.99609375 C-56.51512011 425.40166697 -59.15805617 428.7734865 -61.80859375 432.140625 C-62.26854736 432.72505371 -62.72850098 433.30948242 -63.20239258 433.91162109 C-64.59152085 435.67580185 -65.98126773 437.4394939 -67.37109375 439.203125 C-69.14275628 441.4524735 -70.91357246 443.70248479 -72.68359375 445.953125 C-73.13025391 446.52095703 -73.57691406 447.08878906 -74.03710938 447.67382812 C-77.21266898 451.71585547 -80.36855411 455.77282867 -83.51928711 459.83422852 C-88.50830548 466.26501806 -93.5215617 472.67200221 -98.62109375 479.015625 C-102.62439768 483.99673052 -106.56735179 489.01524298 -110.45117188 494.09033203 C-113.9851572 498.70816561 -117.54903566 503.3021875 -121.12109375 507.890625 C-121.71172607 508.64931885 -122.3023584 509.4080127 -122.91088867 510.18969727 C-124.12168074 511.74484154 -125.33253744 513.29993549 -126.54345703 514.85498047 C-128.36095973 517.19010483 -130.17685163 519.5264721 -131.9921875 521.86328125 C-134.89860292 525.60456865 -137.80791796 529.34358301 -140.71923828 533.08105469 C-141.80974257 534.48198039 -142.89928096 535.88365856 -143.98779297 537.28613281 C-145.48801357 539.21879469 -146.99163268 541.1487633 -148.49609375 543.078125 C-148.93332764 543.64305664 -149.37056152 544.20798828 -149.82104492 544.79003906 C-152.174325 547.7998017 -154.64857617 550.52788081 -157.37109375 553.203125 C-173.9259633 540.79526686 -189.50680919 528.21789901 -204.18359375 513.640625 C-204.67237 513.15729706 -205.16114624 512.67396912 -205.66473389 512.17599487 C-212.36167191 505.53473076 -218.53301389 498.61456701 -224.37109375 491.203125 C-224.85795654 490.595896 -225.34481934 489.98866699 -225.84643555 489.36303711 C-259.68401656 447.03440268 -280.88556706 395.75088772 -288.37109375 342.203125 C-288.54987061 340.92542236 -288.72864746 339.64771973 -288.9128418 338.33129883 C-290.54678899 325.77327846 -290.72987395 313.2908351 -290.68359375 300.640625 C-290.6814386 299.57975677 -290.67928345 298.51888855 -290.67706299 297.4258728 C-290.62618472 281.81609562 -290.23018723 266.589227 -287.37109375 251.203125 C-287.16709961 250.07036133 -286.96310547 248.93759766 -286.75292969 247.77050781 C-283.66087653 230.93299561 -279.49898191 214.53140046 -274.37109375 198.203125 C-274.04109375 198.203125 -273.71109375 198.203125 -273.37109375 198.203125 C-273.37109375 251.993125 -273.37109375 305.783125 -273.37109375 361.203125 C-241.43839353 361.14157863 -241.43839353 361.14157863 -209.50585938 361.04296875 C-196.47469259 360.99450494 -183.44360292 360.95003138 -170.41235352 360.93212891 C-160.91968548 360.91906893 -151.42717517 360.89199406 -141.934596 360.84851193 C-136.91440527 360.82599446 -131.89440838 360.81020845 -126.87416267 360.81124115 C-122.13559162 360.81199355 -117.39744747 360.79381306 -112.65898705 360.76195717 C-110.93264849 360.75353447 -109.20626161 360.75165541 -107.4799118 360.75732231 C-93.23189817 360.79781289 -78.68130461 359.40642183 -65.93359375 352.453125 C-64.95132813 351.93878906 -64.95132813 351.93878906 -63.94921875 351.4140625 C-58.21086577 348.31286188 -53.18053237 344.61394348 -48.37109375 340.203125 C-47.31341797 339.26533203 -47.31341797 339.26533203 -46.234375 338.30859375 C-40.84091831 333.26442759 -37.04139376 327.58117086 -33.37109375 321.203125 C-32.90703125 320.42324219 -32.44296875 319.64335938 -31.96484375 318.83984375 C-23.03648086 302.64357571 -21.64964102 282.0937245 -25.87109375 264.265625 C-30.00315557 251.23150717 -36.25083976 240.34637326 -45.37109375 230.203125 C-46.39749525 228.97860414 -47.41947086 227.75033394 -48.43359375 226.515625 C-49.39265625 225.3709375 -49.39265625 225.3709375 -50.37109375 224.203125 C-49.6440625 223.45482422 -49.6440625 223.45482422 -48.90234375 222.69140625 C-33.74293703 206.45334943 -25.72920533 186.36616548 -25.95385742 164.20410156 C-26.77053496 143.08899402 -37.69654919 122.84985328 -52.76953125 108.3984375 C-61.53799961 100.99921946 -71.33969372 95.46375457 -82.37109375 92.203125 C-83.13994904 91.95800674 -83.90880432 91.71288849 -84.70095825 91.46034241 C-96.29856866 88.24166358 -108.10425201 88.723385 -120.046875 88.69140625 C-122.42727064 88.67453691 -124.80765749 88.65638367 -127.18803406 88.63700867 C-133.41361749 88.58974763 -139.63916529 88.55978409 -145.86486816 88.53356934 C-152.23355137 88.50364265 -158.60211208 88.45715421 -164.97070312 88.41210938 C-177.4374356 88.3263484 -189.90419347 88.25888272 -202.37109375 88.203125 C-201.4245368 87.08706152 -200.47629047 85.9724307 -199.52734375 84.85839844 C-198.99947266 84.23753357 -198.47160156 83.6166687 -197.92773438 82.97698975 C-182.29571872 65.1635773 -159.9162507 50.66438095 -139.37109375 39.203125 C-138.55995117 38.74969727 -137.74880859 38.29626953 -136.91308594 37.82910156 C-95.27731832 14.80407603 -47.8636864 0.23871209 0 0 Z " fill="#FCFCFC" transform="translate(498.37109375,463.796875)"/>
<path d="M0 0 C33.4515184 -0.1209091 33.4515184 -0.1209091 47.5 -0.14648438 C57.18917622 -0.16426548 66.87827401 -0.18513649 76.56738281 -0.22631836 C83.6248112 -0.25630033 90.68217579 -0.27559382 97.7396661 -0.28226548 C101.47360775 -0.28616291 105.20736692 -0.29526775 108.94124985 -0.31719017 C113.11830351 -0.34151367 117.29504363 -0.34196437 121.47216797 -0.34057617 C123.31176338 -0.35675491 123.31176338 -0.35675491 125.18852234 -0.3732605 C137.22134219 -0.33009698 146.81427503 2.32639797 155.75390625 10.62890625 C162.20559428 17.59802289 165.32484332 26.17154537 165.140625 35.58203125 C164.58371023 45.15787141 160.91725898 52.97900138 154.1484375 59.890625 C144.97595639 67.3644985 134.62930384 68.58678333 123.17504883 68.45410156 C121.82369012 68.45297048 120.47232897 68.45361202 119.12097168 68.45587158 C115.48722057 68.45700952 111.85400802 68.43365168 108.22038102 68.40557575 C104.41010734 68.38040666 100.59981848 68.37820798 96.78947449 68.37347412 C89.58965684 68.36108954 82.39008494 68.32832988 75.19037503 68.28807616 C65.45041602 68.23481317 55.71038883 68.21337642 45.9703207 68.19006729 C30.64669674 68.15256456 15.32359113 68.07284422 0 68 C0 45.56 0 23.12 0 0 Z " fill="#FCFCFC" transform="translate(266,712)"/>
<path d="M0 0 C32.61858903 -0.16121214 32.61858903 -0.16121214 46.3359375 -0.1953125 C55.79012782 -0.21900435 65.24417506 -0.24678598 74.69824219 -0.30175781 C81.58502529 -0.34178257 88.47169179 -0.3674698 95.35858798 -0.37635398 C99.00099811 -0.38154247 102.64307484 -0.39362894 106.2853775 -0.42292023 C110.36390101 -0.45544975 114.44185479 -0.45594947 118.52050781 -0.45410156 C119.71166199 -0.46848267 120.90281616 -0.48286377 122.13006592 -0.49768066 C134.00389464 -0.43975644 144.4592347 2.42534278 153 11 C159.20278761 18.31820117 162.68953543 27.05599491 162.28125 36.71875 C161.0014353 47.09946924 156.1961111 56.14412584 147.99609375 62.71875 C141.50082697 66.8879232 134.18035634 69.12754787 126.50775146 69.12025452 C125.39158447 69.12162918 124.27541748 69.12300385 123.12542725 69.12442017 C121.90551086 69.12082489 120.68559448 69.11722961 119.42871094 69.11352539 C117.49662781 69.11374443 117.49662781 69.11374443 115.5255127 69.1139679 C111.99692251 69.11425477 108.46836633 69.10837583 104.93978405 69.10139394 C101.25089376 69.09514207 97.56200268 69.09455515 93.87310791 69.09336853 C86.88920485 69.09026063 79.90531745 69.08205451 72.92142129 69.07201904 C63.48298909 69.05875097 54.04455261 69.05335363 44.60611343 69.04751682 C29.73739723 69.03811428 14.86871406 69.01819174 0 69 C0 46.23 0 23.46 0 0 Z " fill="#FCFCFC" transform="translate(266,597)"/>
<path d="M0 0 C0.98724029 0.00092179 1.97448057 0.00184359 2.99163723 0.00279331 C4.12050854 0.00141865 5.24937984 0.00004398 6.41245937 -0.00137234 C8.2865649 0.00402058 8.2865649 0.00402058 10.19853115 0.00952244 C11.50565563 0.00937641 12.81278011 0.00923038 14.15951443 0.00907993 C17.7543955 0.00879197 21.34924348 0.01468855 24.94411683 0.02165389 C28.69708703 0.02788757 32.45005791 0.02849124 36.20303249 0.0296793 C43.31453277 0.03279257 50.42601776 0.04100591 57.53751129 0.05102879 C65.63169517 0.06219005 73.72587977 0.06770041 81.82006943 0.07272422 C98.47479676 0.08318852 115.12950869 0.10078789 131.78422451 0.12304783 C131.78422451 0.45304783 131.78422451 0.78304783 131.78422451 1.12304783 C87.89422451 1.12304783 44.00422451 1.12304783 -1.21577549 1.12304783 C-1.21577549 23.89304783 -1.21577549 46.66304783 -1.21577549 70.12304783 C43.00422451 70.12304783 87.22422451 70.12304783 132.78422451 70.12304783 C132.78422451 70.45304783 132.78422451 70.78304783 132.78422451 71.12304783 C125.91060619 72.17455614 119.17957019 72.26459233 112.2336874 72.25244236 C110.99542202 72.25419468 109.75715664 72.255947 108.48136806 72.25775242 C105.10789353 72.26138348 101.73448082 72.26055577 98.36100984 72.25737333 C94.8260908 72.2548315 91.2911743 72.25719197 87.75625515 72.2587595 C81.82929417 72.26057421 75.9023457 72.25819149 69.97538662 72.25341892 C63.11674793 72.24796005 56.2581389 72.2497535 49.39950091 72.25524533 C43.50637656 72.25977544 37.61326116 72.26042804 31.72013563 72.25780666 C28.20185702 72.25624558 24.68359239 72.25604588 21.16531467 72.25934315 C17.25319788 72.26275429 13.34111471 72.25803394 9.4289999 72.25244236 C8.25761974 72.25446659 7.08623959 72.25649082 5.87936306 72.25857639 C4.29174664 72.25434666 4.29174664 72.25434666 2.67205715 72.25003147 C1.74682782 72.24965445 0.82159849 72.24927742 -0.13166809 72.24888897 C-2.21577549 72.12304783 -2.21577549 72.12304783 -3.21577549 71.12304783 C-3.31533827 68.95042103 -3.34377268 66.77451677 -3.34517002 64.59961033 C-3.34692234 63.91832066 -3.34867466 63.23703098 -3.35048008 62.53509617 C-3.35489791 60.27272116 -3.35196087 58.0104237 -3.34858799 55.74804783 C-3.34926105 54.18245523 -3.35023109 52.61686273 -3.35148716 51.05127048 C-3.35296404 47.76594138 -3.3508099 44.48063941 -3.34614658 41.19531345 C-3.34044929 36.97484267 -3.34372835 32.75443547 -3.34971905 28.53396702 C-3.35332493 25.29988211 -3.35218595 22.06581238 -3.34959126 18.83172703 C-3.34892206 17.27512702 -3.34975014 15.71852565 -3.35207081 14.16192722 C-3.35459779 11.99007587 -3.35075614 9.81832887 -3.34517002 7.64648533 C-3.34437443 6.40817966 -3.34357883 5.169874 -3.34275913 3.89404392 C-3.17238391 0.17617081 -3.17238391 0.17617081 0 0 Z " fill="#030510" transform="translate(267.21577548980713,595.8769521713257)"/>
<path d="M0 0 C81.18 0 162.36 0 246 0 C243 3 243 3 241.06286937 3.36618346 C240.32279445 3.36200654 239.58271952 3.35782961 238.82021809 3.35352612 C237.96429642 3.35601587 237.10837475 3.35850561 236.22651607 3.36107081 C235.28586321 3.34844134 234.34521035 3.33581187 233.37605286 3.32279968 C232.37710281 3.3212794 231.37815276 3.31975913 230.34893149 3.31819278 C226.98606123 3.30939055 223.62372747 3.27899167 220.26098633 3.2487793 C217.85663891 3.23807615 215.45228529 3.22869792 213.04792786 3.22055054 C207.86353897 3.19999003 202.67929019 3.17017349 197.49500465 3.13199425 C189.99937911 3.07680925 182.50374074 3.03822997 175.00799485 3.003723 C162.84712859 2.94728811 150.6863783 2.87739554 138.52563477 2.79907227 C126.71153916 2.72301038 114.89743417 2.65326643 103.08325195 2.59204102 C102.3552132 2.58826585 101.62717445 2.58449068 100.87707392 2.58060112 C97.22477297 2.56170156 93.57247139 2.54292644 89.92016947 2.52421319 C59.6133237 2.36876943 29.30664204 2.19127521 -1 2 C-0.67 1.34 -0.34 0.68 0 0 Z " fill="#030617" transform="translate(543,746)"/>
<path d="M0 0 C7.59 0 15.18 0 23 0 C23 0.33 23 0.66 23 1 C20.69 1 18.38 1 16 1 C16 1.66 16 2.32 16 3 C11.05 3 6.1 3 1 3 C0.67 2.01 0.34 1.02 0 0 Z " fill="#1B273F" transform="translate(488,1111)"/>
<path d="M0 0 C0.33 0 0.66 0 1 0 C1 7.59 1 15.18 1 23 C-2.22364792 18.16452812 -2.37913691 12.82246367 -1.61328125 7.12109375 C-1.13336376 4.72831363 -0.60837639 2.36311491 0 0 Z " fill="#0E1425" transform="translate(474,736)"/>
<path d="M0 0 C0.33 0 0.66 0 1 0 C0.94011859 2.12579013 0.85137256 4.25078413 0.75 6.375 C0.70359375 7.55835938 0.6571875 8.74171875 0.609375 9.9609375 C0 13 0 13 -2.046875 14.4140625 C-3.01367188 14.70410156 -3.01367188 14.70410156 -4 15 C-3.52396226 12.87429688 -3.04407402 10.74945573 -2.5625 8.625 C-2.29566406 7.44164062 -2.02882812 6.25828125 -1.75390625 5.0390625 C-1 2 -1 2 0 0 Z " fill="#ECEEEF" transform="translate(224,662)"/>
<path d="M0 0 C0.66 0.66 1.32 1.32 2 2 C-4.43255401 2.12086218 -10.61773055 1.82351864 -17 1 C-17 0.67 -17 0.34 -17 0 C-14.9174133 -0.19561869 -12.83388144 -0.38119313 -10.75 -0.5625 C-9.58984375 -0.66691406 -8.4296875 -0.77132813 -7.234375 -0.87890625 C-4.45579422 -0.98293524 -2.56817474 -0.98368161 0 0 Z " fill="#141A2B" transform="translate(485,421)"/>
<path d="M0 0 C1.32 0.33 2.64 0.66 4 1 C0.04 4.465 0.04 4.465 -4 8 C-4 4.09161134 -2.49432124 2.88405893 0 0 Z " fill="#060D1F" transform="translate(633,868)"/>
<path d="M0 0 C0.99 0.33 1.98 0.66 3 1 C0.61042731 4.24299151 -1.2047869 6.50902342 -5 8 C-3.8141763 4.62496331 -2.72426311 2.35277269 0 0 Z " fill="#060D1D" transform="translate(688,799)"/>
<path d="M0 0 C0.33 0 0.66 0 1 0 C1.02691685 2.45840605 1.04679802 4.91651882 1.0625 7.375 C1.07087891 8.07367187 1.07925781 8.77234375 1.08789062 9.4921875 C1.11328125 14.7734375 1.11328125 14.7734375 0 17 C-0.99 17 -1.98 17 -3 17 C-2.68289063 16.47921875 -2.36578125 15.9584375 -2.0390625 15.421875 C-0.71079489 12.32591291 -0.57635753 9.60595879 -0.375 6.25 C-0.30023438 5.07953125 -0.22546875 3.9090625 -0.1484375 2.703125 C-0.09945313 1.81109375 -0.05046875 0.9190625 0 0 Z " fill="#0D1A33" transform="translate(429,625)"/>
<path d="M0 0 C0.33 0 0.66 0 1 0 C1 3.96 1 7.92 1 12 C0.34 11.67 -0.32 11.34 -1 11 C-1.484375 9.00390625 -1.484375 9.00390625 -1.75 6.5625 C-1.84796875 5.75941406 -1.9459375 4.95632813 -2.046875 4.12890625 C-2 2 -2 2 0 0 Z " fill="#121C34" transform="translate(165,734)"/>
<path d="M0 0 C0.33 0 0.66 0 1 0 C1.125 6.75 1.125 6.75 0 9 C-0.99 8.67 -1.98 8.34 -3 8 C-2.01 5.36 -1.02 2.72 0 0 Z " fill="#111726" transform="translate(189,629)"/>
</svg>
